# xmcd
#
# Track frame offsets: 
#        150
#        14130
#        37110
#        55593
#        81831
#        99972
#        119496
#        137898
#        150078
#        166405
#        179827
#
# Disc length: 2669 seconds
#
# Revision: 5
# Processed by: cddbd v1.5.2PL0 Copyright (c) Steve Scherf et al.
# Submitted via: ExactAudioCopyFreeDBPlugin 1.0
#
DISCID=8f0a6b0b
DTITLE=Bill Perry - Fire It Up
DYEAR=2001
DGENRE=Blues
TTITLE0=Itchin' For It
TTITLE1=Clean Thing
TTITLE2=Born In New York
TTITLE3=Thinkin' Of You
TTITLE4=Fire It Up
TTITLE5=Pressure
TTITLE6=I Can't See The Light Of The Day
TTITLE7=G and L Jump
TTITLE8=I Ain't Lyin'
TTITLE9=Heaven In A Pontiac
TTITLE10=Cheatin' Blues
EXTD=YEAR: 2001 ID3G:   0
EXTT0=
EXTT1=
EXTT2=
EXTT3=
EXTT4=
EXTT5=
EXTT6=
EXTT7=
EXTT8=
EXTT9=
EXTT10=
PLAYORDER=
